<svg width="60" height="60" viewBox="0 0 60 60" fill="none" xmlns="http://www.w3.org/2000/svg">
<g clip-path="url(#clip0_1_4863)">
<path d="M3.55093 35.9947C-1.27011 40.8049 -1.29589 48.6148 3.55093 53.4482C8.37703 58.2609 16.2282 58.2596 21.053 53.4482C24.758 49.7533 49.7767 24.8032 53.4801 21.1099C58.2718 16.3315 58.3558 8.52127 53.4801 3.6565C48.6554 -1.15477 40.8027 -1.15477 35.978 3.6565C25.4637 14.142 13.8736 25.7003 3.55093 35.9947ZM19.8069 52.2055C15.6679 56.333 8.93598 56.333 4.79703 52.2055C0.631186 48.0538 0.67228 41.3482 4.79703 37.2374L20.3857 21.6908L35.3967 36.6589L19.8069 52.2055ZM37.2241 4.89915C41.3631 0.771696 48.095 0.771696 52.234 4.89915C56.4594 9.11286 56.2934 15.8191 52.234 19.8673L36.6441 35.4138L21.6342 20.4457L37.2241 4.89915Z" fill="white"/>
<path d="M47.7718 7.71653C48.095 7.92731 48.3985 8.17363 48.6738 8.44814C49.0177 8.79113 49.5758 8.79129 49.9199 8.44814C50.264 8.10501 50.264 7.54863 49.9199 7.2055C49.5586 6.8452 49.1604 6.5229 48.7352 6.24594C48.3272 5.98123 47.7816 6.09398 47.5162 6.50084C47.2495 6.90648 47.3638 7.45059 47.7718 7.71653Z" fill="white"/>
<path d="M40.783 8.4482C41.8374 7.39796 43.2383 6.81953 44.729 6.81953C45.2156 6.81953 45.6101 6.42614 45.6101 5.94085C45.6101 5.45556 45.2156 5.06217 44.729 5.06217C42.7689 5.06217 40.9243 5.8232 39.5369 7.20556L36.0198 10.7129C35.6757 11.056 35.6757 11.6124 36.0198 11.9556C36.3637 12.2985 36.9218 12.2987 37.2659 11.9556L40.783 8.4482Z" fill="white"/>
</g>
<defs>
<clipPath id="clip0_1_4863">
<rect width="60" height="60" fill="white"/>
</clipPath>
</defs>
</svg>
