<svg width="24" height="28" viewBox="0 0 24 28" fill="none" xmlns="http://www.w3.org/2000/svg">
<path d="M20.4054 5.31016C18.1607 3.01328 15.1714 1.75 11.9946 1.75C5.4375 1.75 0.101786 7.19688 0.101786 13.8906C0.101786 16.0289 0.648214 18.118 1.6875 19.9609L0 26.25L6.30536 24.5602C8.04107 25.5281 9.99643 26.0367 11.9893 26.0367H11.9946C18.5464 26.0367 24 20.5898 24 13.8961C24 10.6531 22.65 7.60703 20.4054 5.31016ZM11.9946 23.9914C10.2161 23.9914 8.475 23.5047 6.95893 22.5859L6.6 22.3672L2.86071 23.368L3.85714 19.6438L3.62143 19.2609C2.63036 17.6531 2.11071 15.7992 2.11071 13.8906C2.11071 8.32891 6.54643 3.80078 12 3.80078C14.6411 3.80078 17.1214 4.85078 18.9857 6.75938C20.85 8.66797 21.9964 11.2 21.9911 13.8961C21.9911 19.4633 17.4429 23.9914 11.9946 23.9914ZM17.4161 16.4336C17.1214 16.2805 15.6589 15.5477 15.3857 15.4492C15.1125 15.3453 14.9143 15.2961 14.7161 15.6023C14.5179 15.9086 13.95 16.5867 13.7732 16.7945C13.6018 16.9969 13.425 17.0242 13.1304 16.8711C11.3839 15.9797 10.2375 15.2797 9.08571 13.2617C8.78036 12.7258 9.39107 12.7641 9.95893 11.6047C10.0554 11.4023 10.0071 11.2273 9.93214 11.0742C9.85714 10.9211 9.2625 9.42813 9.01607 8.82109C8.775 8.23047 8.52857 8.3125 8.34643 8.30156C8.175 8.29063 7.97679 8.29063 7.77857 8.29063C7.58036 8.29063 7.25893 8.36719 6.98571 8.66797C6.7125 8.97422 5.94643 9.70703 5.94643 11.2C5.94643 12.693 7.0125 14.1367 7.15714 14.3391C7.30714 14.5414 9.25179 17.6039 12.2357 18.9219C14.1214 19.7531 14.8607 19.8242 15.8036 19.682C16.3768 19.5945 17.5607 18.9492 17.8071 18.2383C18.0536 17.5273 18.0536 16.9203 17.9786 16.7945C17.9089 16.6578 17.7107 16.5813 17.4161 16.4336Z" fill="white"/>
</svg>
